<svg width="87" height="34" viewBox="0 0 87 34" fill="none" xmlns="http://www.w3.org/2000/svg">
<mask id="path-1-inside-1" fill="white">
<path fill-rule="evenodd" clip-rule="evenodd" d="M17 0C7.61116 0 0 7.61116 0 17C0 26.3888 7.61116 34 17 34H70C79.3888 34 87 26.3888 87 17C87 7.61116 79.3888 0 70 0H17ZM39.7174 22.0002H41.7256L37.2245 16.0236L41.7522 11.0911H39.7121L35.4667 15.6987H34.9021V11.0911H33.2561V22.0002H34.9021V17.1103H36.0313L39.7174 22.0002ZM42.6205 22.0002H43.1318C44.9163 22.0002 45.5715 20.6792 45.6993 17.9732L45.8271 15.1927H48.5012V22.0002H50.0619V13.8184H44.3517L44.2078 17.4406C44.1066 19.9654 43.819 20.6206 42.9081 20.6206H42.6151L42.6205 22.0002ZM53.7466 19.7683V13.8184H52.1859V22.0002H53.9171L57.5073 16.045V22.0002H59.068V13.8184H57.3528L53.7466 19.7683ZM61.2093 22.0002H62.7594V15.1927H66.323V22.0002H67.8837V13.8184H61.2093V22.0002ZM23.6289 16.3127C24.1237 16.6382 24.1237 17.3619 23.6289 17.6874L17.281 21.8625C16.7318 22.2238 16 21.8311 16 21.1752V12.8249C16 12.169 16.7318 11.7763 17.281 12.1376L23.6289 16.3127Z"/>
</mask>
<path fill-rule="evenodd" clip-rule="evenodd" d="M17 0C7.61116 0 0 7.61116 0 17C0 26.3888 7.61116 34 17 34H70C79.3888 34 87 26.3888 87 17C87 7.61116 79.3888 0 70 0H17ZM39.7174 22.0002H41.7256L37.2245 16.0236L41.7522 11.0911H39.7121L35.4667 15.6987H34.9021V11.0911H33.2561V22.0002H34.9021V17.1103H36.0313L39.7174 22.0002ZM42.6205 22.0002H43.1318C44.9163 22.0002 45.5715 20.6792 45.6993 17.9732L45.8271 15.1927H48.5012V22.0002H50.0619V13.8184H44.3517L44.2078 17.4406C44.1066 19.9654 43.819 20.6206 42.9081 20.6206H42.6151L42.6205 22.0002ZM53.7466 19.7683V13.8184H52.1859V22.0002H53.9171L57.5073 16.045V22.0002H59.068V13.8184H57.3528L53.7466 19.7683ZM61.2093 22.0002H62.7594V15.1927H66.323V22.0002H67.8837V13.8184H61.2093V22.0002ZM23.6289 16.3127C24.1237 16.6382 24.1237 17.3619 23.6289 17.6874L17.281 21.8625C16.7318 22.2238 16 21.8311 16 21.1752V12.8249C16 12.169 16.7318 11.7763 17.281 12.1376L23.6289 16.3127Z" fill="white"/>
<path d="M41.7256 22.0002V24.0002H45.7356L43.3232 20.797L41.7256 22.0002ZM39.7174 22.0002L38.1203 23.2041L38.7205 24.0002H39.7174V22.0002ZM37.2245 16.0236L35.7511 14.6712L34.6256 15.8973L35.6269 17.2268L37.2245 16.0236ZM41.7522 11.0911L43.2256 12.4436L46.3029 9.09112H41.7522V11.0911ZM39.7121 11.0911V9.09112H38.8353L38.2412 9.7359L39.7121 11.0911ZM35.4667 15.6987V17.6987H36.3435L36.9376 17.0539L35.4667 15.6987ZM34.9021 15.6987H32.9021V17.6987H34.9021V15.6987ZM34.9021 11.0911H36.9021V9.09112H34.9021V11.0911ZM33.2561 11.0911V9.09112H31.2561V11.0911H33.2561ZM33.2561 22.0002H31.2561V24.0002H33.2561V22.0002ZM34.9021 22.0002V24.0002H36.9021V22.0002H34.9021ZM34.9021 17.1103V15.1103H32.9021V17.1103H34.9021ZM36.0313 17.1103L37.6284 15.9064L37.0283 15.1103H36.0313V17.1103ZM42.6205 22.0002L40.6205 22.0079L40.6282 24.0002H42.6205V22.0002ZM45.6993 17.9732L47.6971 18.0676L47.6972 18.0651L45.6993 17.9732ZM45.8271 15.1927V13.1927H43.917L43.8293 15.1008L45.8271 15.1927ZM48.5012 15.1927H50.5012V13.1927H48.5012V15.1927ZM48.5012 22.0002H46.5012V24.0002H48.5012V22.0002ZM50.0619 22.0002V24.0002H52.0619V22.0002H50.0619ZM50.0619 13.8184H52.0619V11.8184H50.0619V13.8184ZM44.3517 13.8184V11.8184H42.4295L42.3532 13.739L44.3517 13.8184ZM44.2078 17.4406L46.2062 17.5207L46.2063 17.5199L44.2078 17.4406ZM42.6151 20.6206V18.6206H40.6074L40.6152 20.6283L42.6151 20.6206ZM53.7466 13.8184H55.7466V11.8184H53.7466V13.8184ZM53.7466 19.7683H51.7466V26.9268L55.457 20.805L53.7466 19.7683ZM52.1859 13.8184V11.8184H50.1859V13.8184H52.1859ZM52.1859 22.0002H50.1859V24.0002H52.1859V22.0002ZM53.9171 22.0002V24.0002H55.0467L55.6299 23.0328L53.9171 22.0002ZM57.5073 16.045H59.5073V8.85371L55.7945 15.0124L57.5073 16.045ZM57.5073 22.0002H55.5073V24.0002H57.5073V22.0002ZM59.068 22.0002V24.0002H61.068V22.0002H59.068ZM59.068 13.8184H61.068V11.8184H59.068V13.8184ZM57.3528 13.8184V11.8184H56.2263L55.6424 12.7818L57.3528 13.8184ZM62.7594 22.0002V24.0002H64.7594V22.0002H62.7594ZM61.2093 22.0002H59.2093V24.0002H61.2093V22.0002ZM62.7594 15.1927V13.1927H60.7594V15.1927H62.7594ZM66.323 15.1927H68.323V13.1927H66.323V15.1927ZM66.323 22.0002H64.323V24.0002H66.323V22.0002ZM67.8837 22.0002V24.0002H69.8837V22.0002H67.8837ZM67.8837 13.8184H69.8837V11.8184H67.8837V13.8184ZM61.2093 13.8184V11.8184H59.2093V13.8184H61.2093ZM23.6289 17.6874L24.7279 19.3583L23.6289 17.6874ZM23.6289 16.3127L22.5298 17.9837L22.5298 17.9837L23.6289 16.3127ZM17.281 21.8625L16.182 20.1916L17.281 21.8625ZM17.281 12.1376L18.3801 10.4666L18.3801 10.4666L17.281 12.1376ZM2 17C2 8.71573 8.71573 2 17 2V-2C6.50659 -2 -2 6.50659 -2 17H2ZM17 32C8.71573 32 2 25.2843 2 17H-2C-2 27.4934 6.50659 36 17 36V32ZM70 32H17V36H70V32ZM85 17C85 25.2843 78.2843 32 70 32V36C80.4934 36 89 27.4934 89 17H85ZM70 2C78.2843 2 85 8.71573 85 17H89C89 6.50659 80.4934 -2 70 -2V2ZM17 2H70V-2H17V2ZM41.7256 20.0002H39.7174V24.0002H41.7256V20.0002ZM35.6269 17.2268L40.128 23.2034L43.3232 20.797L38.8221 14.8205L35.6269 17.2268ZM40.2788 9.73866L35.7511 14.6712L38.6979 17.3761L43.2256 12.4436L40.2788 9.73866ZM39.7121 13.0911H41.7522V9.09112H39.7121V13.0911ZM36.9376 17.0539L41.1829 12.4463L38.2412 9.7359L33.9959 14.3435L36.9376 17.0539ZM34.9021 17.6987H35.4667V13.6987H34.9021V17.6987ZM32.9021 11.0911V15.6987H36.9021V11.0911H32.9021ZM33.2561 13.0911H34.9021V9.09112H33.2561V13.0911ZM35.2561 22.0002V11.0911H31.2561V22.0002H35.2561ZM34.9021 20.0002H33.2561V24.0002H34.9021V20.0002ZM32.9021 17.1103V22.0002H36.9021V17.1103H32.9021ZM36.0313 15.1103H34.9021V19.1103H36.0313V15.1103ZM41.3145 20.7963L37.6284 15.9064L34.4343 18.3142L38.1203 23.2041L41.3145 20.7963ZM43.1318 20.0002H42.6205V24.0002H43.1318V20.0002ZM43.7015 17.8788C43.6404 19.1736 43.455 19.7515 43.3238 19.9692C43.2851 20.0334 43.2858 20.0084 43.3334 19.9833C43.3697 19.964 43.3315 20.0002 43.1318 20.0002V24.0002C43.8244 24.0002 44.5372 23.8713 45.2023 23.5198C45.8786 23.1624 46.3857 22.638 46.7498 22.0337C47.4243 20.9144 47.6304 19.4788 47.6971 18.0676L43.7015 17.8788ZM43.8293 15.1008L43.7014 17.8814L47.6972 18.0651L47.825 15.2845L43.8293 15.1008ZM48.5012 13.1927H45.8271V17.1927H48.5012V13.1927ZM50.5012 22.0002V15.1927H46.5012V22.0002H50.5012ZM50.0619 20.0002H48.5012V24.0002H50.0619V20.0002ZM48.0619 13.8184V22.0002H52.0619V13.8184H48.0619ZM44.3517 15.8184H50.0619V11.8184H44.3517V15.8184ZM46.2063 17.5199L46.3501 13.8977L42.3532 13.739L42.2094 17.3612L46.2063 17.5199ZM42.9081 22.6206C43.3671 22.6206 43.9765 22.5387 44.5641 22.1603C45.1595 21.7769 45.5051 21.2364 45.7096 20.7423C46.0644 19.8849 46.1574 18.738 46.2062 17.5207L42.2094 17.3604C42.1852 17.9659 42.1513 18.4106 42.1076 18.7387C42.0861 18.9003 42.0643 19.0177 42.0448 19.1009C42.0251 19.1851 42.0119 19.2166 42.0136 19.2125C42.0197 19.1978 42.1163 18.9789 42.3984 18.7973C42.6727 18.6206 42.9045 18.6206 42.9081 18.6206V22.6206ZM42.6151 22.6206H42.9081V18.6206H42.6151V22.6206ZM44.6205 21.9925L44.6151 20.6129L40.6152 20.6283L40.6205 22.0079L44.6205 21.9925ZM51.7466 13.8184V19.7683H55.7466V13.8184H51.7466ZM52.1859 15.8184H53.7466V11.8184H52.1859V15.8184ZM54.1859 22.0002V13.8184H50.1859V22.0002H54.1859ZM53.9171 20.0002H52.1859V24.0002H53.9171V20.0002ZM55.7945 15.0124L52.2043 20.9676L55.6299 23.0328L59.2201 17.0776L55.7945 15.0124ZM59.5073 22.0002V16.045H55.5073V22.0002H59.5073ZM59.068 20.0002H57.5073V24.0002H59.068V20.0002ZM57.068 13.8184V22.0002H61.068V13.8184H57.068ZM57.3528 15.8184H59.068V11.8184H57.3528V15.8184ZM55.457 20.805L59.0632 14.855L55.6424 12.7818L52.0363 18.7317L55.457 20.805ZM62.7594 20.0002H61.2093V24.0002H62.7594V20.0002ZM60.7594 15.1927V22.0002H64.7594V15.1927H60.7594ZM66.323 13.1927H62.7594V17.1927H66.323V13.1927ZM68.323 22.0002V15.1927H64.323V22.0002H68.323ZM67.8837 20.0002H66.323V24.0002H67.8837V20.0002ZM65.8837 13.8184V22.0002H69.8837V13.8184H65.8837ZM61.2093 15.8184H67.8837V11.8184H61.2093V15.8184ZM63.2093 22.0002V13.8184H59.2093V22.0002H63.2093ZM24.7279 19.3583C26.424 18.2428 26.424 15.7574 24.7279 14.6418L22.5298 17.9837C21.8234 17.519 21.8234 16.4811 22.5298 16.0164L24.7279 19.3583ZM18.3801 23.5335L24.7279 19.3583L22.5298 16.0164L16.182 20.1916L18.3801 23.5335ZM14 21.1752C14 23.4345 16.5106 24.7631 18.3801 23.5335L16.182 20.1916C16.953 19.6845 18 20.2278 18 21.1752H14ZM14 12.8249V21.1752H18V12.8249H14ZM18.3801 10.4666C16.5106 9.23702 14 10.5656 14 12.8249H18C18 13.7723 16.953 14.3156 16.182 13.8085L18.3801 10.4666ZM24.7279 14.6418L18.3801 10.4666L16.182 13.8085L22.5298 17.9837L24.7279 14.6418Z" fill="white" mask="url(#path-1-inside-1)"/>
</svg>
